<?xml version="1.0" standalone="no"?><svg xmlns="http://www.w3.org/2000/svg" viewBox="0 0 1440 320"><path fill="#6752d7" fill-opacity="1" d="M0,64L30,96C60,128,120,192,180,197.3C240,203,300,149,360,112C420,75,480,53,540,85.3C600,117,660,203,720,213.3C780,224,840,160,900,144C960,128,1020,160,1080,149.3C1140,139,1200,85,1260,80C1320,75,1380,117,1410,138.7L1440,160L1440,0L1410,0C1380,0,1320,0,1260,0C1200,0,1140,0,1080,0C1020,0,960,0,900,0C840,0,780,0,720,0C660,0,600,0,540,0C480,0,420,0,360,0C300,0,240,0,180,0C120,0,60,0,30,0L0,0Z"></path></svg>